<svg width="16" height="16" fill="none" xmlns="http://www.w3.org/2000/svg"><path d="M8.875 3.375H2.75a.864.864 0 01-.875-.875c0-.465.383-.875.875-.875h6.125a.9.9 0 01.875.875c0 .492-.41.875-.875.875zm0 7H2.75a.864.864 0 01-.875-.875c0-.465.383-.875.875-.875h6.125a.9.9 0 01.875.875c0 .492-.41.875-.875.875zM1.875 6c0-.465.383-.875.875-.875h10.5a.9.9 0 01.875.875c0 .492-.41.875-.875.875H2.75A.864.864 0 011.875 6zm11.375 7.875H2.75A.864.864 0 011.875 13c0-.465.383-.875.875-.875h10.5a.9.9 0 01.875.875c0 .492-.41.875-.875.875z" fill="#3E3232" fill-opacity=".5"/></svg>