<svg width="16" height="16" fill="none" xmlns="http://www.w3.org/2000/svg"><path d="M14.18 1.57a2.723 2.723 0 010 3.856l-2.762 2.761.246.274a.843.843 0 010 1.23.843.843 0 01-1.23 0L6.059 5.316a.843.843 0 010-1.23.843.843 0 011.23 0l.274.246 2.761-2.762a2.723 2.723 0 013.856 0zM2.504 9.61L5.812 6.3l1.231 1.231-3.309 3.309a.411.411 0 00-.109.3v.985h.984c.11 0 .22-.027.301-.11l3.31-3.307 1.23 1.23-3.308 3.31a2.15 2.15 0 01-1.532.628H3.434l-1.094.738c-.328.246-.793.192-1.094-.11-.3-.3-.355-.765-.11-1.093l.739-1.094v-1.175c0-.575.219-1.121.629-1.532z" fill="#3E3232" fill-opacity=".5"/></svg>