<svg width="35" height="35" fill="none" xmlns="http://www.w3.org/2000/svg"><path fill-rule="evenodd" clip-rule="evenodd" d="M20.839 27.862l3.556 2.864a.952.952 0 001.549-.74v-4.76a11.181 11.181 0 004.153-8.581c0-6.432-5.797-11.708-13-11.708-7.202 0-13 5.276-13 11.707 0 6.432 5.798 11.712 13 11.712a14.235 14.235 0 003.742-.494zm.808-1.792a.952.952 0 00-.88-.167 12.366 12.366 0 01-3.67.55C11.002 26.454 6 22.092 6 16.646c0-5.443 5.002-9.806 11.097-9.806 6.096 0 11.098 4.362 11.098 9.806a9.35 9.35 0 01-3.786 7.375.948.948 0 00-.368.75V28l-2.394-1.929z" fill="#54ADDC"/></svg>