<svg width="15" height="13" fill="none" xmlns="http://www.w3.org/2000/svg"><path d="M4.938 5.438c.464 0 .847.41.847.875a.858.858 0 01-.848.875.864.864 0 01-.875-.875c0-.465.383-.875.875-.875zm3.062 0c.465 0 .848.41.848.875 0 .437-.41.847-.848.847-.465 0-.875-.383-.875-.848 0-.492.383-.875.875-.875zm3.063 0c.464 0 .874.41.847.875a.858.858 0 01-.848.875.881.881 0 01-.874-.875.88.88 0 01.874-.875zM8 .625c3.855 0 6.973 2.598 6.973 5.715S11.855 12 8 12a8.402 8.402 0 01-2.543-.383c-.82.574-2.133 1.258-3.8 1.258-.274 0-.52-.137-.602-.41-.082-.246-.055-.52.136-.711 0 0 .848-.93 1.258-1.996C1.547 8.8 1 7.598 1 6.313 1 3.167 4.117.625 8 .625zm0 10.063c3.117 0 5.633-1.942 5.633-4.376 0-2.406-2.543-4.375-5.66-4.375-3.118 0-5.66 1.97-5.66 4.375 0 1.176.574 2.051 1.066 2.57l.574.602-.3.766a5.116 5.116 0 01-.548 1.094 6.104 6.104 0 001.586-.793l.52-.383.629.191a7.132 7.132 0 002.16.329z" fill="#3E3232" fill-opacity=".5"/></svg>