<svg width="16" height="16" fill="none" xmlns="http://www.w3.org/2000/svg"><path d="M4.938 6.438c.464 0 .847.41.847.875a.858.858 0 01-.848.875.864.864 0 01-.875-.876c0-.464.383-.875.875-.875zm3.062 0c.465 0 .848.41.848.875 0 .437-.41.847-.848.847-.465 0-.875-.383-.875-.848 0-.492.383-.875.875-.875zm3.063 0c.464 0 .874.41.847.875a.858.858 0 01-.848.875.881.881 0 01-.874-.876.88.88 0 01.874-.875zM8 1.625c3.855 0 6.973 2.598 6.973 5.715S11.855 13 8 13a8.402 8.402 0 01-2.543-.383c-.82.574-2.133 1.258-3.8 1.258-.274 0-.52-.137-.602-.41-.082-.246-.055-.52.136-.711 0 0 .848-.93 1.258-1.996C1.547 9.8 1 8.598 1 7.313c0-3.145 3.117-5.688 7-5.688zm0 10.063c3.117 0 5.633-1.942 5.633-4.376 0-2.406-2.543-4.375-5.66-4.375-3.118 0-5.66 1.97-5.66 4.376 0 1.175.574 2.05 1.066 2.57l.574.601-.3.766a5.116 5.116 0 01-.548 1.094 6.104 6.104 0 001.586-.793l.52-.383.629.191a7.132 7.132 0 002.16.329z" fill="#fff"/></svg>