<svg width="44" height="44" fill="none" xmlns="http://www.w3.org/2000/svg"><path d="M15.83 11.78c1.771.036 3.497.843 4.734 2.984.46.795 1.606.795 2.068 0 1.237-2.141 2.963-2.948 4.734-2.985 1.771-.038 3.585.796 4.703 2.14 2.159 2.595 2.435 7.13-.725 10.307l-9.746 8.392-9.748-8.392c-3.158-3.177-2.884-7.712-.724-10.307 1.119-1.344 2.932-2.178 4.704-2.14zm.051-2.39a8.411 8.411 0 00-6.594 3.002c-2.968 3.567-3.146 9.5.876 13.531.02.022.044.043.067.064l10.588 9.112a1.197 1.197 0 001.56 0l10.59-9.112c.023-.021.043-.042.065-.064 4.022-4.032 3.841-9.964.873-13.531a8.405 8.405 0 00-6.592-3.002c-2.099.043-4.123 1.208-5.716 3.117-1.594-1.909-3.618-3.074-5.717-3.117z" fill="#54ADDC"/></svg>