<svg width="20" height="19" fill="none" xmlns="http://www.w3.org/2000/svg"><rect x=".284" width="19" height="19" rx="9.5" fill="#1B92D1"/><path fill-rule="evenodd" clip-rule="evenodd" d="M6.301 7.461c0-.895.726-1.62 1.62-1.62h3.727c.895 0 1.62.725 1.62 1.62v4.078a1.62 1.62 0 01-1.62 1.62H7.92a1.62 1.62 0 01-1.62-1.62V7.461zM8.11 9.5a1.689 1.689 0 113.378 0v.1a1.689 1.689 0 11-3.378 0v-.1zm3.652-2.604a.457.457 0 100 .915.457.457 0 000-.915z" fill="#fff"/><path d="M8.751 9.5a1.033 1.033 0 112.067 0 1.033 1.033 0 01-2.067 0z" fill="#fff"/></svg>