<svg width="16" height="16" fill="none" xmlns="http://www.w3.org/2000/svg"><path d="M5.156 4.031c.711 0 1.313.602 1.313 1.313 0 .738-.602 1.312-1.313 1.312a1.296 1.296 0 01-1.312-1.312c0-.711.574-1.313 1.312-1.313zm8.067-2.406c.984 0 1.75.793 1.75 1.75v8.75c0 .984-.793 1.75-1.75 1.75h-10.5c-.957 0-1.75-.766-1.75-1.75v-8.75c0-.957.793-1.75 1.75-1.75h10.5zm.437 10.336V3.375a.45.45 0 00-.437-.438h-10.5a.47.47 0 00-.438.438l.027 8.75 2.051-2.57a.582.582 0 01.41-.192c.165 0 .301.082.41.192l1.012 1.258 2.899-3.938a.531.531 0 01.437-.219c.164 0 .301.082.383.219l3.746 5.086z" fill="#3E3232" fill-opacity=".5"/></svg>