<svg width="18" height="16" fill="none" xmlns="http://www.w3.org/2000/svg"><path d="M4.953 4.36a3.96 3.96 0 015.578 0 3.983 3.983 0 01.438 5.113l-.028.027c-.273.41-.82.492-1.23.219-.383-.301-.492-.848-.191-1.23l.027-.028A2.201 2.201 0 009.3 5.617c-.848-.875-2.242-.875-3.117 0L3.12 8.68c-.875.847-.875 2.242 0 3.117.766.765 1.969.848 2.844.246l.027-.055c.41-.273.957-.191 1.23.219a.906.906 0 01-.19 1.23l-.055.028a3.946 3.946 0 01-5.086-.438 3.912 3.912 0 010-5.578l3.062-3.09zm8.067 6.78a3.912 3.912 0 01-5.579 0 3.946 3.946 0 01-.437-5.085l.027-.028c.274-.41.82-.492 1.23-.218a.87.87 0 01.192 1.23l-.027.027a2.204 2.204 0 00.246 2.844c.848.875 2.242.875 3.117 0l3.063-3.062c.875-.875.875-2.27 0-3.118a2.204 2.204 0 00-2.844-.246l-.027.028a.873.873 0 01-1.231-.192.906.906 0 01.191-1.23l.055-.027a3.946 3.946 0 015.086.437 3.912 3.912 0 010 5.578l-3.063 3.063z" fill="#3E3232" fill-opacity=".5"/></svg>