<svg width="138" height="42" fill="none" xmlns="http://www.w3.org/2000/svg"><path d="M50.139 14.54h5.487v1.407h-2.014V22h-1.47v-6.053h-2.004v-1.406zM62.299 22h-1.598l-.447-1.343H57.28L56.833 22h-1.587l2.61-7.46h1.822L62.3 22zm-3.526-5.765l-1.023 3.048h2.046l-1.023-3.048zm5.721-1.694v6.052h2.846V22h-4.316v-7.46h1.47zm6.644 3.623L74.004 22H72.31l-2.664-3.495V22h-1.47v-7.46h1.47v3.294l2.557-3.293h1.694l-2.76 3.623zM77.64 22v-7.566h5.552V22h-.938v-6.724h-3.687V22h-.927zm7.42 0v-7.566h2.642c.846 0 1.475.213 1.887.64.412.426.618.994.618 1.705 0 .774-.242 1.356-.725 1.747-.476.39-1.122.586-1.94.586h-1.555V22h-.927zm.927-3.73h1.47c.604 0 1.052-.135 1.343-.404.298-.278.448-.647.448-1.109 0-.476-.146-.842-.437-1.097-.292-.256-.693-.384-1.205-.384h-1.62v2.994zM91.595 22v-7.566h.927v6.02h.021l4.188-6.02h.81V22h-.927v-5.967h-.022L92.427 22h-.831zm7.825 0v-7.566h.938l2.781 4.891h.022l2.781-4.89h.927V22h-.927v-5.765h-.021l-2.462 4.241h-.629l-2.461-4.24h-.011V22h-.938zm12.798.064c-1.108 0-2.021-.359-2.738-1.076-.711-.725-1.066-1.648-1.066-2.77 0-1.123.359-2.047 1.076-2.771.718-.725 1.627-1.087 2.728-1.087 1.08 0 1.979.358 2.696 1.076.718.717 1.076 1.645 1.076 2.781 0 1.137-.358 2.064-1.076 2.781-.717.71-1.616 1.066-2.696 1.066zm0-.874c.796 0 1.46-.277 1.993-.831.54-.561.81-1.275.81-2.142s-.27-1.58-.81-2.142c-.533-.56-1.197-.841-1.993-.841-.817 0-1.495.284-2.035.852-.533.561-.799 1.272-.799 2.131 0 .853.266 1.563.799 2.131.54.562 1.218.842 2.035.842zm5.32.81v-7.566h2.642c.846 0 1.474.213 1.886.64.412.426.618.994.618 1.705 0 .774-.241 1.356-.724 1.747-.476.39-1.123.586-1.94.586h-1.555V22h-.927zm.927-3.73h1.47c.604 0 1.052-.135 1.343-.404.298-.278.447-.647.447-1.109 0-.476-.145-.842-.436-1.097-.292-.256-.693-.384-1.205-.384h-1.619v2.994zm5.608 3.73v-7.566H125v2.952h1.705c1.754 0 2.632.753 2.632 2.259 0 1.57-.881 2.355-2.643 2.355h-2.621zm.927-.842h1.694c1.122 0 1.684-.49 1.684-1.47 0-.974-.558-1.46-1.673-1.46H125v2.93zm5.733.842v-7.566h4.635v.842h-3.708v2.536h3.037v.842h-3.037v2.504h3.932V22h-4.859z" fill="#fff"/><path fill-rule="evenodd" clip-rule="evenodd" d="M.667 16.261l6.442 3.365.573-.236 3.929 2.245-.58.384L9.55 28.24a.525.525 0 00.82.547l4.377-3.112 6.05 6.273c.652.677 1.793.448 2.142-.428l1.129-2.838-5.981-10.34-4.41 2.552L12 18l12.119-7.01 1.675 2.895-4.48 2.591 4.509 7.794 5.465-13.736c.476-1.197-.573-2.433-1.836-2.164L.928 14.45c-.896.19-1.067 1.39-.261 1.811z" fill="#1B92D1"/></svg>