<svg width="175" height="43" fill="none" xmlns="http://www.w3.org/2000/svg"><path d="M54.595 20.788V14.52h2.025v10.273h-1.54l-4.404-6.281v6.281h-2.025V14.521h1.541l4.403 6.267zm5.956-.235v2.304h4.33v1.937h-6.355V14.521h6.281v1.937h-4.256v2.187h3.89v1.908h-3.89zm10.204 4.241h-2.304l-2.876-10.273h2.128l1.966 7.617 2.143-7.617h1.732l2.157 7.617 1.967-7.617h2.128l-2.877 10.273h-2.304l-1.937-6.78-1.923 6.78zM84.191 25c-1.008 0-1.859-.226-2.554-.676a3.684 3.684 0 01-1.482-1.863l1.732-1.013c.401 1.047 1.189 1.57 2.363 1.57.548 0 .959-.098 1.233-.293a.925.925 0 00.41-.793c0-.362-.161-.64-.484-.836-.323-.206-.9-.426-1.732-.66-.9-.275-1.61-.593-2.128-.955-.645-.48-.968-1.184-.968-2.113 0-.94.328-1.678.983-2.216.656-.558 1.453-.837 2.392-.837.822 0 1.551.2 2.187.602.636.401 1.13.969 1.482 1.702l-1.702.984c-.411-.88-1.067-1.321-1.967-1.321-.41 0-.739.098-.983.294a.878.878 0 00-.367.733.96.96 0 00.396.793c.294.205.812.42 1.556.645l.704.235c.128.04.348.123.66.25.294.108.51.21.647.308.479.294.802.597.968.91.255.41.382.895.382 1.453 0 .949-.348 1.702-1.042 2.26-.695.558-1.59.837-2.686.837zm9.055-.206v-10.42h7.647v10.42h-1.292v-9.26h-5.078v9.26h-1.277zm10.219 0v-10.42h3.64c1.164 0 2.03.294 2.597.88.568.588.852 1.37.852 2.349 0 1.066-.333 1.868-.998 2.407-.656.538-1.546.807-2.671.807h-2.143v3.977h-1.277zm1.277-5.137h2.025c.832 0 1.448-.186 1.849-.557.411-.382.617-.89.617-1.527 0-.655-.201-1.159-.602-1.511-.401-.352-.954-.529-1.658-.529h-2.231v4.124zm7.724 5.137v-10.42h1.276v8.292h.03l5.768-8.292h1.115v10.42h-1.277v-8.218h-.029l-5.739 8.218h-1.144zm10.777 0v-10.42h1.292l3.83 6.736h.03l3.83-6.736h1.277v10.42h-1.277v-7.94h-.029l-3.39 5.841h-.866l-3.39-5.84h-.015v7.94h-1.292zm17.626.088c-1.526 0-2.783-.494-3.771-1.482-.979-.998-1.468-2.27-1.468-3.816 0-1.546.494-2.818 1.482-3.816.988-.998 2.241-1.497 3.757-1.497 1.488 0 2.725.494 3.713 1.483.989.988 1.483 2.265 1.483 3.83 0 1.566-.494 2.842-1.483 3.83-.988.979-2.225 1.468-3.713 1.468zm0-1.203c1.096 0 2.011-.382 2.745-1.145.743-.773 1.115-1.756 1.115-2.95 0-1.194-.372-2.177-1.115-2.95-.734-.773-1.649-1.16-2.745-1.16-1.125 0-2.059.392-2.803 1.175-.734.773-1.1 1.751-1.1 2.935 0 1.174.366 2.153 1.1 2.935.744.773 1.678 1.16 2.803 1.16zm7.327 1.115v-10.42h3.639c1.165 0 2.03.294 2.598.88.567.588.851 1.37.851 2.349 0 1.066-.332 1.868-.998 2.407-.655.538-1.546.807-2.671.807h-2.143v3.977h-1.276zm1.276-5.137h2.026c.831 0 1.448-.186 1.849-.557.411-.382.616-.89.616-1.527 0-.655-.2-1.159-.601-1.511-.402-.352-.954-.529-1.659-.529h-2.231v4.124zm7.724 5.137v-10.42h1.277v4.065h2.348c2.417 0 3.625 1.037 3.625 3.112 0 2.162-1.213 3.243-3.64 3.243h-3.61zm1.277-1.16h2.333c1.546 0 2.319-.674 2.319-2.025 0-1.34-.768-2.01-2.304-2.01h-2.348v4.036zm7.896 1.16v-10.42h6.384v1.16h-5.107v3.492h4.182v1.16h-4.182v3.449h5.415v1.16h-6.692z" fill="#E0812A"/><path fill-rule="evenodd" clip-rule="evenodd" d="M24.001 0H0v37.802h25.668L35.06 43V0h-6.01v33.124h-4.515L11.33 13.94h-.23v19.184H6.023V4.96h4.542l13.19 19.197H24V0z" fill="#E0812A"/></svg>