<svg width="116" height="116" fill="none" xmlns="http://www.w3.org/2000/svg"><path d="M89.304 29.796a1.58 1.58 0 002.177.517l8.576-5.264a1.576 1.576 0 00-.469-2.87 1.585 1.585 0 00-1.19.181l-8.575 5.264a1.58 1.58 0 00-.518 2.172zm21.267 10.489l-12.572-1.219a1.581 1.581 0 00-1.666 2.032 1.579 1.579 0 001.36 1.11l12.572 1.22a1.58 1.58 0 001.728-1.419 1.582 1.582 0 00-1.422-1.724zM82.886 18.77a1.574 1.574 0 001.466-.167 1.58 1.58 0 00.581-.731l4.579-11.747a1.576 1.576 0 00-.91-2.018 1.585 1.585 0 00-2.038.873l-4.58 11.747a1.574 1.574 0 00.902 2.044zm-11.174-8.7a3.678 3.678 0 00-5.05-1.193l-1.892 1.165a3.64 3.64 0 00-1.644 2.271 3.631 3.631 0 00.447 2.767l1.089 1.76-24.877 30.732-5.253 3.234a1.58 1.58 0 101.662 2.687l4.137-2.547 8.062 13.04a6.473 6.473 0 00-3.382.706l-.056.029a7.353 7.353 0 00-.42.237l-4.73 2.928c-.518.322-.999.7-1.434 1.126a8.302 8.302 0 00-1.36 1.727l-1.167 1.756-.858 1.29a.368.368 0 01-.023-.008l-.038-.018a2.439 2.439 0 01-.44-.256 2.277 2.277 0 01-.213-.18l-.021-.018a2.372 2.372 0 01-.17-.184l-.033-.043a2.3 2.3 0 01-.148-.21l-6.837-11.056a2.274 2.274 0 01-.28-1.734 2.278 2.278 0 011.03-1.425l2.046-1.26a1.577 1.577 0 00-.466-2.879 1.582 1.582 0 00-1.195.193l-2.047 1.26a5.42 5.42 0 00-2.448 3.383 5.42 5.42 0 00.055 2.73l-1.522.937a4.33 4.33 0 00-1.414 5.96l3.861 6.244a4.31 4.31 0 002.693 1.94 4.317 4.317 0 003.279-.529l1.524-.938c.317.288.666.537 1.04.744l-4.392 6.602-1.035.705a1.915 1.915 0 00-2.096.242l-2.726 2.288a1.927 1.927 0 00-2.21.1L5.414 98.461A3.69 3.69 0 004 101.373v4.918A3.717 3.717 0 007.717 110H32.82a3.71 3.71 0 002.898-1.386l2.082-2.584a1.91 1.91 0 00.464-1.466l2.8-2.353c.27-.225.47-.521.581-.853l6.456 1.32c.096.02.192.031.29.032.188.004.376.006.564.006 1.53 0 3.05-.155 4.648-1.118l6.503-3.865a5.138 5.138 0 003.01-.748l5.225-3.188a5.154 5.154 0 001.715-7.085 5.12 5.12 0 00-2.07-1.906 5.202 5.202 0 00-3.352-7.466 5.178 5.178 0 00-.642-3.821 5.177 5.177 0 00-3.013-2.286 5.186 5.186 0 00-1.283-4.919l31.347-6.809 1.089 1.76a3.672 3.672 0 005.049 1.194l1.893-1.165a3.648 3.648 0 001.195-5.04L71.712 10.07zM28.994 73.945a1.17 1.17 0 01-1.305-.047 1.17 1.17 0 01-.313-.336l-3.86-6.245a1.174 1.174 0 01.382-1.614l1.342-.827 5.097 8.241-1.343.828zm4.257 32.691a.55.55 0 01-.43.206H7.716a.555.555 0 01-.553-.552v-4.918a.55.55 0 01.21-.433l14.393-11.338 12.973 15.186-1.489 1.849zm3.217-4.693l-11.38-13.32 1.686-1.416 11.294 13.394-1.6 1.342zm15.507-3.053c-.966.582-1.872.685-3.383.665l-8.105-1.658a1.582 1.582 0 00-.573-.012l-9.95-11.798.902-.614.003-.002c.015-.01.03-.023.044-.033.034-.026.068-.051.1-.078l.045-.043c.032-.03.061-.06.09-.092l.035-.039c.035-.042.069-.086.1-.132l.009-.011.007-.01.008-.013 8.366-12.574.052-.083a5.17 5.17 0 011.747-1.794l4.73-2.927a3.36 3.36 0 01.267-.149c.04-.02.081-.038.121-.057.048-.02.095-.042.144-.061a3.797 3.797 0 01.465-.15c.253-.06.512-.092.772-.093h.016c.076 0 .15.003.226.008l.072.006c.067.006.133.014.199.023.039.006.078.014.118.022.1.019.2.043.298.071.038.011.077.02.114.032l.148.056.116.046a3.201 3.201 0 01.394.204l.095.061c.047.031.094.063.14.097.027.02.054.043.08.064a3.035 3.035 0 01.698.784l.116.19 1.687 2.747 2.116 3.447.538.877a1.468 1.468 0 01.17 1.114 1.62 1.62 0 01-.744 1.008l-.951.58-.001.001a1.673 1.673 0 01-.247.122 1.613 1.613 0 01-.43.11l-.04.005c-.07.005-.14.007-.211.004l-.04-.002a1.67 1.67 0 01-.212-.027l-.003-.001a1.56 1.56 0 01-.219-.063l-.019-.007a1.492 1.492 0 01-.41-.236 1.531 1.531 0 01-.318-.361l-1.577-2.573a4.182 4.182 0 00-2.625-1.892 4.33 4.33 0 00-3.302.54 1.583 1.583 0 00-.734 1.129 8.64 8.64 0 01-.065.398 8.196 8.196 0 01-.08.378c-.03.122-.061.244-.097.364a6.684 6.684 0 01-.745 1.678l-.001.003c-.59.942-1.422 1.739-2.513 2.4a1.581 1.581 0 00-.754 1.595 1.578 1.578 0 001.817 1.32c.206-.033.404-.107.581-.217.77-.467 1.454-.992 2.051-1.57l6.607 10.397c1.217 1.884 3.32 2.976 5.496 2.976.116 0 .231-.005.346-.012a5.211 5.211 0 00.78 1.082l-4.677 2.78zm1.342-11.607l.001.002c.027.074.055.147.086.22l.01.026c.028.066.057.13.088.196l.02.044c.03.061.062.121.093.181l.028.054a5.341 5.341 0 00.387.604c.088.118.181.232.279.343.043.05.086.1.132.148.033.036.07.069.106.104.127.127.261.248.401.361l.044.035c.271.215.564.402.874.559a5.19 5.19 0 00-.559 1.718 3.36 3.36 0 01-2.612-1.514l-7.273-11.447c.343-.71.603-1.457.773-2.226.114-.007.228.003.339.03.278.065.511.232.656.468l1.577 2.573a4.392 4.392 0 00.258.376c.066.086.137.167.208.247.025.028.047.059.072.087l.011.041c.025.11.053.218.084.326a5.17 5.17 0 00.156.455c.004.012.01.023.015.035a5.746 5.746 0 00.378.75 5.183 5.183 0 003.179 2.334 5.176 5.176 0 00.19 2.87zm1.01-18.79l.531-.323a2.047 2.047 0 011.556-.244 2.043 2.043 0 011.271.925c.59.965.285 2.23-.682 2.82l-.528.322-1.564-2.546-.584-.953zm11.79 18.964a1.99 1.99 0 011.239.9 2 2 0 01-.666 2.747l-5.224 3.187a1.991 1.991 0 01-1.388.261 1.107 1.107 0 00-.083-.016c-.014-.004-.029-.005-.043-.009a1.989 1.989 0 01-1.49-1.544c-.001-.007-.001-.013-.003-.019a2.007 2.007 0 01.53-1.772l.037-.036a2.894 2.894 0 01.146-.128l.057-.045a2.3 2.3 0 01.148-.101l1.038-.633c.184-.085.364-.18.537-.284l3.998-2.439c.373-.139.78-.163 1.167-.069zm-3.64-6.92a2.046 2.046 0 011.368-.142 2.046 2.046 0 011.273.925c.59.965.284 2.23-.683 2.82l-.94.573c-.185.085-.367.18-.542.287l-3.977 2.425a2.065 2.065 0 01-2.145-.403h-.001a1.85 1.85 0 01-.127-.129l-.031-.038a2.139 2.139 0 01-.197-.266 2.255 2.255 0 01-.095-.175c-.009-.018-.016-.037-.025-.057a2.052 2.052 0 01-.052-.123c-.009-.023-.015-.044-.022-.066a2.093 2.093 0 01-.078-.31l-.01-.065a1.721 1.721 0 01-.017-.19 1.724 1.724 0 010-.132c0-.02 0-.039.002-.058.002-.045.008-.09.013-.134l.006-.057a2.047 2.047 0 01.682-1.24c.014-.012.026-.027.04-.04.02-.016.039-.034.06-.05.049-.028.099-.053.148-.083l5.133-3.131a4.85 4.85 0 00.218-.14zM60.02 74.24a2.043 2.043 0 011.272.925c.55.9.321 2.06-.495 2.691a4.226 4.226 0 00-.157.09l-3.963 2.417.038-.032c.076-.06.152-.12.223-.185.044-.04.086-.081.13-.123.064-.062.128-.125.189-.192.042-.044.081-.091.121-.137a4.891 4.891 0 00.42-.573c.032-.052.064-.103.094-.156.045-.079.086-.16.127-.242.025-.051.053-.101.076-.154.041-.091.077-.185.113-.28.017-.045.037-.09.052-.135a4.734 4.734 0 00.209-.857c.006-.045.01-.09.015-.136a4.8 4.8 0 00.027-.29l.004-.158c.002-.09.002-.18-.002-.27-.001-.053-.005-.106-.008-.16a4.785 4.785 0 00-.029-.27c-.006-.05-.012-.1-.02-.15a4.232 4.232 0 00-.064-.302c-.008-.037-.014-.074-.024-.11a4.633 4.633 0 00-.126-.402l-.032-.077c-.035-.09-.068-.179-.109-.266l.364-.222a2.046 2.046 0 011.554-.244zm37.618-15.946a.503.503 0 01-.226.313l-1.893 1.166a.507.507 0 01-.696-.165L74.897 27.382a1.585 1.585 0 00-2.885.465c-.096.407-.027.836.193 1.192l17.077 27.618-36.764 7.986-9.737-15.748L66.424 19.69l1.91 3.09a1.58 1.58 0 001.602.739 1.585 1.585 0 001.29-1.2 1.574 1.574 0 00-.2-1.198l-4.76-7.697a.502.502 0 01.165-.694l1.893-1.165a.507.507 0 01.695.164l28.558 46.186a.5.5 0 01.061.38z" fill="#1B92D1"/></svg>