<svg width="16" height="16" fill="none" xmlns="http://www.w3.org/2000/svg"><path d="M8 7.75c.957 0 1.75.793 1.75 1.75 0 .984-.793 1.75-1.75 1.75-.984 0-1.75-.766-1.75-1.75 0-.957.766-1.75 1.75-1.75zm5.715-3.445c.246.246.41.601.41.93v6.89c0 .984-.793 1.75-1.75 1.75h-8.75c-.984 0-1.75-.766-1.75-1.75v-8.75c0-.957.766-1.75 1.75-1.75h6.89c.329 0 .684.164.903.383l2.297 2.297zm-8.34-1.367v2.187h3.938V2.937H5.374zm7.438 9.187V5.316c0-.054-.028-.082-.055-.109l-2.133-2.16V5.78c0 .383-.3.657-.656.657h-5.25a.632.632 0 01-.657-.657V2.938h-.437a.45.45 0 00-.438.437v8.75c0 .246.192.438.438.438h8.75a.45.45 0 00.438-.438z" fill="#fff"/></svg>