<svg width="16" height="16" fill="none" xmlns="http://www.w3.org/2000/svg"><path d="M14.7.887c.218.136.327.383.245.629l-1.75 11.812c-.027.192-.136.383-.328.465a.573.573 0 01-.3.11c-.11 0-.192-.028-.274-.055l-2.68-1.149-3.035 1.969a.842.842 0 01-.355.082c-.082 0-.192-.027-.301-.055a.686.686 0 01-.328-.601v-3.09l-4.211-1.75C1.164 9.144 1 8.926 1 8.68a.609.609 0 01.328-.602L14.016.86a.62.62 0 01.683.028zM11.09 4.03L3.133 8.543l2.844 1.203 5.113-5.715zm-4.211 8.86l1.258-.793-1.258-.547v1.34zm5.168-.602l1.312-8.832-6.125 6.809 4.813 2.023z" fill="#3E3232" fill-opacity=".5"/></svg>