<svg width="18" height="16" fill="none" xmlns="http://www.w3.org/2000/svg"><path d="M11.57 1.871l-3.5 12.25c-.136.465-.601.738-1.066.602-.465-.137-.738-.602-.602-1.067l3.5-12.25c.137-.465.602-.738 1.067-.601.465.136.738.601.601 1.066zm2.844 2.215l3.063 3.062a.843.843 0 010 1.23l-3.063 3.063a.843.843 0 01-1.23 0 .843.843 0 010-1.23l2.433-2.461-2.433-2.434a.843.843 0 010-1.23.843.843 0 011.23 0zM4.79 5.316L2.355 7.75l2.434 2.46a.843.843 0 010 1.231.843.843 0 01-1.23 0L.496 8.38a.843.843 0 010-1.23L3.56 4.085a.843.843 0 011.23 0 .843.843 0 010 1.23z" fill="#3E3232" fill-opacity=".5"/></svg>