<svg width="20" height="19" fill="none" xmlns="http://www.w3.org/2000/svg"><rect x=".523" width="19" height="19" rx="9.5" fill="#1B92D1"/><path d="M13.823 7.144a3.25 3.25 0 01-.898.246 1.55 1.55 0 00.686-.861c-.302.18-.634.306-.988.377a1.558 1.558 0 00-2.695 1.065c0 .124.01.243.036.356a4.41 4.41 0 01-3.212-1.63 1.56 1.56 0 00.479 2.082 1.539 1.539 0 01-.704-.191v.017c0 .757.54 1.386 1.248 1.53a1.554 1.554 0 01-.408.052c-.1 0-.2-.006-.295-.027a1.573 1.573 0 001.456 1.086 3.13 3.13 0 01-2.305.643c.69.445 1.508.7 2.39.7 2.867 0 4.435-2.376 4.435-4.435a4.32 4.32 0 00-.006-.2c.31-.22.57-.494.781-.81z" fill="#fff"/></svg>