<svg width="20" height="19" fill="none" xmlns="http://www.w3.org/2000/svg"><rect x=".761" width="19" height="19" rx="9.5" fill="#1B92D1"/><path fill-rule="evenodd" clip-rule="evenodd" d="M13.46 10.18c.293.288.604.558.867.874.117.14.227.286.312.449.12.231.01.486-.197.5H13.15c-.333.027-.598-.107-.822-.335-.179-.182-.344-.376-.516-.564a1.222 1.222 0 00-.233-.207c-.176-.114-.33-.08-.43.105-.103.187-.126.394-.136.602-.014.305-.106.385-.411.399-.653.03-1.273-.068-1.849-.398-.507-.29-.9-.7-1.243-1.164-.667-.904-1.178-1.897-1.637-2.918-.103-.23-.028-.353.226-.358.421-.008.843-.007 1.265 0 .17.002.284.1.35.262.228.56.507 1.094.857 1.589.094.131.189.263.324.355.15.103.264.07.334-.098.045-.106.065-.22.075-.333a4.96 4.96 0 00-.02-1.167c-.037-.243-.173-.4-.415-.446-.124-.023-.105-.07-.046-.14.104-.121.202-.197.396-.197h1.46c.23.046.281.149.313.38v1.622c-.002.09.046.355.207.414.129.042.214-.061.291-.143.35-.37.6-.81.822-1.263.1-.2.184-.407.267-.614.06-.154.156-.23.33-.226l1.404.001a.74.74 0 01.125.008c.236.04.301.142.228.373-.115.363-.34.665-.558.969-.235.324-.485.637-.718.963-.213.298-.196.448.07.707z" fill="#fff"/></svg>