<svg width="58" height="57" fill="none" xmlns="http://www.w3.org/2000/svg"><path d="M47.255 15.695c-.663.003-1.324.051-1.98.145a8.505 8.505 0 00-7.733-4.578c-.378.003-.756.028-1.131.072a7.637 7.637 0 00-7.276-6.498 7.647 7.647 0 00-7.737 5.941 7.57 7.57 0 00-1.923-.258 7.663 7.663 0 00-7.62 6.904 7.655 7.655 0 00-11.16 4.729 7.642 7.642 0 004.04 8.801 7.656 7.656 0 004.51.69 7.655 7.655 0 007.177 4.932 7.665 7.665 0 003.004-.62c2.012 1.962 5.333 3.23 9.09 3.23 5.026 0 9.269-2.294 10.642-5.45a7.638 7.638 0 0011.652-3.23c3.903-1.083 6.674-3.885 6.674-7.171 0-4.207-4.573-7.64-10.23-7.64zm-29.737 30.45a3.157 3.157 0 01-3.587 2.633c-1.568-.356-2.489-2.116-2.077-3.933.412-1.817 4.13-4.966 4.13-4.966s1.946 4.441 1.534 6.266zm13.43 2.738c-.534 2.293-2.562 3.779-4.533 3.326-1.972-.452-3.152-2.68-2.618-4.974C24.33 44.942 29 40.961 29 40.961s2.473 5.628 1.948 7.922zm12.597-2.738a2.93 2.93 0 01-3.58 2.622 2.934 2.934 0 01-2.272-2.689c-.024-.42.043-.84.196-1.233.412-1.817 4.121-4.966 4.121-4.966s1.948 4.441 1.535 6.266z" fill="#fff"/></svg>