<svg width="58" height="57" fill="none" xmlns="http://www.w3.org/2000/svg"><path d="M15.041 39.66a6.778 6.778 0 011.863-4.84 6.82 6.82 0 014.745-2.118c.63 0 1.256.096 1.858.282a6.594 6.594 0 012.335-3.46 6.629 6.629 0 013.95-1.372h.59a6.574 6.574 0 012.38-3.137 6.606 6.606 0 013.75-1.22c.443.003.885.052 1.317.145a19.817 19.817 0 00-5.441-11.366A19.925 19.925 0 0021.18 6.763a19.782 19.782 0 01-1.283 19.033 19.872 19.872 0 01-7.218 6.72 19.945 19.945 0 01-9.57 2.432A20.771 20.771 0 010 34.707a19.87 19.87 0 007.346 8.395 19.957 19.957 0 0010.724 3.129c.469 0 .93 0 1.39-.057a6.967 6.967 0 01-3.223-2.574 6.934 6.934 0 01-1.196-3.94z" fill="#fff"/><path d="M49.704 33.257c-.476.002-.951.037-1.422.105a6.046 6.046 0 00-2.255-2.56 6.073 6.073 0 00-3.287-.935 6.59 6.59 0 00-.807.056 5.405 5.405 0 00-1.663-3.442 5.438 5.438 0 00-7.166-.284 5.408 5.408 0 00-1.931 3.3 5.248 5.248 0 00-1.382-.194 5.663 5.663 0 00-3.75 1.583 5.63 5.63 0 00-1.71 3.684 5.182 5.182 0 00-2.682-.749 5.88 5.88 0 00-3.869 1.855 5.845 5.845 0 000 7.967 5.88 5.88 0 003.869 1.855c.27-.004.54-.028.808-.072a5.484 5.484 0 001.958 2.697 5.512 5.512 0 003.163 1.071 5.19 5.19 0 002.173-.475 9.076 9.076 0 006.51 2.48c3.604 0 6.65-1.755 7.635-4.163a5.245 5.245 0 003.271 1.168 5.512 5.512 0 003.109-1.027 5.485 5.485 0 001.972-2.605c2.795-.805 4.79-2.972 4.79-5.476.009-3.23-3.28-5.839-7.334-5.839z" fill="#fff"/></svg>