<svg width="30" height="30" fill="none" xmlns="http://www.w3.org/2000/svg"><rect width="30" height="30" rx="15" fill="#1B92D1"/><path d="M21.03 15.254a1.54 1.54 0 00-.484-.835 1.543 1.543 0 00-.865-.396c-1.035-.112-2.595-.169-4.681-.169s-3.644.057-4.673.17a1.53 1.53 0 00-.868.396 1.598 1.598 0 00-.49.834c-.146.653-.219 1.637-.219 2.952 0 1.339.073 2.323.22 2.953.072.331.234.61.484.835.25.224.539.354.865.387 1.035.119 2.595.178 4.681.178s3.647-.06 4.681-.178c.326-.033.613-.163.86-.387a1.6 1.6 0 00.49-.835c.146-.653.219-1.637.219-2.953 0-1.338-.073-2.322-.22-2.952zm-8.712.853h-.902v4.799h-.844v-4.8h-.885v-.792h2.631v.793zm2.277 4.799h-.75v-.456c-.304.343-.59.515-.86.515-.26 0-.422-.105-.49-.313-.045-.135-.067-.34-.067-.615v-3.298h.75v3.07c0 .18.003.278.009.295.017.118.076.177.177.177.152 0 .312-.118.48-.354V16.74h.751v4.166zm2.868-1.249c0 .41-.025.692-.076.844-.096.309-.295.463-.599.463-.27 0-.53-.154-.784-.463v.405h-.75v-5.592h.75v1.83c.242-.304.503-.455.784-.455.304 0 .503.157.6.472.05.146.075.424.075.835v1.661zm2.85-.691h-1.509v.733c0 .388.13.582.388.582.186 0 .298-.1.337-.303.011-.057.017-.228.017-.515h.768v.11c0 .275-.006.438-.017.49a1.02 1.02 0 01-.177.454c-.203.299-.507.448-.911.448-.388 0-.692-.144-.911-.43-.163-.209-.245-.535-.245-.979v-1.46c0-.443.079-.77.236-.978.22-.286.52-.43.903-.43.377 0 .675.144.894.43.152.209.228.535.228.979v.869z" fill="#fff"/><path d="M16.383 17.371c-.13 0-.256.062-.38.186v2.539c.124.123.25.185.38.185.22 0 .33-.188.33-.565v-1.78c0-.376-.11-.565-.33-.565zm2.8 0c-.253 0-.38.192-.38.574v.388h.76v-.388c0-.383-.127-.574-.38-.574zM11.83 10.81v2.285h.843V10.81l1.02-3.366h-.86l-.574 2.219-.598-2.219h-.894c.157.473.34.998.548 1.578.264.775.436 1.372.514 1.788zm2.993 2.344c.388 0 .686-.143.894-.43.157-.208.236-.54.236-.995v-1.476c0-.45-.079-.78-.236-.987-.208-.287-.506-.43-.894-.43-.377 0-.672.143-.886.43-.157.208-.236.537-.236.987v1.476c0 .45.079.781.236.995.214.287.509.43.886.43zm-.363-3.053c0-.388.12-.582.363-.582.242 0 .362.194.362.582v1.77c0 .395-.12.591-.362.591s-.363-.197-.363-.59V10.1zm2.682 3.053c.282 0 .571-.174.87-.523v.464h.767V8.886h-.768V12.1c-.169.242-.329.363-.48.363-.102 0-.161-.062-.178-.186a2.186 2.186 0 01-.008-.295V8.886h-.768v3.324c0 .286.023.497.068.632.073.208.239.312.497.312z" fill="#fff"/></svg>