<svg width="20" height="19" fill="none" xmlns="http://www.w3.org/2000/svg"><rect x=".046" width="19" height="19" rx="9.5" fill="#1B92D1"/><path d="M13.782 7.374a1.107 1.107 0 00-.779-.779c-.691-.189-3.457-.189-3.457-.189s-2.765 0-3.457.182a1.13 1.13 0 00-.778.786c-.182.692-.182 2.125-.182 2.125s0 1.441.182 2.125c.102.379.4.677.778.779.699.19 3.457.19 3.457.19s2.766 0 3.457-.183c.379-.102.677-.4.779-.778.182-.692.182-2.125.182-2.125s.007-1.441-.182-2.133zm-5.116 3.45v-2.65l2.3 1.325-2.3 1.325z" fill="#fff"/></svg>